<svg width="79" height="12" viewBox="0 0 79 12" fill="none" xmlns="http://www.w3.org/2000/svg">
<g clip-path="url(#clip0)">
<path d="M78.7005 0.158569H75.1343H73.6371C73.6371 0.158569 72.2487 1.90306 72.1399 2.06165C72.1399 1.98236 72.1399 0.158569 72.1399 0.158569H68.002V11.8414H72.1399V8.8546L73.7188 11.8414H79L75.2705 4.91628C75.216 4.78412 75.216 4.62553 75.2977 4.5198L78.7005 0.158569Z" fill="white"/>
<path d="M62.3397 8.14095C62.0947 8.27311 61.8769 8.37883 61.6319 8.51099C60.3253 9.17178 59.0458 9.83258 57.7391 10.4934C57.8208 10.5991 57.9024 10.6784 58.0113 10.7577C58.1475 10.8898 58.2836 10.9956 58.4469 11.1013C59.2091 10.7313 59.9441 10.3348 60.7064 9.96474C61.8769 9.35681 63.0747 8.77531 64.2453 8.16738L64.2725 8.14095H62.3397ZM63.1836 3.88544C62.5847 3.59469 62.0131 3.27751 61.4142 2.98676C59.8625 2.19381 58.2836 1.40086 56.7319 0.607908V1.58588C58.2291 2.3524 59.7536 3.11892 61.2508 3.88544C61.278 3.91187 61.3053 3.91187 61.3597 3.91187C61.9042 3.91187 62.4214 3.91187 62.8842 3.91187C62.9931 3.91187 63.102 3.91187 63.2109 3.91187H63.2381C63.2109 3.91187 63.1836 3.88544 63.1836 3.88544ZM60.0803 3.91187C59.808 3.77971 59.5358 3.64756 59.2636 3.48897C58.4197 3.06606 57.5758 2.61672 56.7319 2.19381V3.9383H60.1347C60.1075 3.91187 60.0803 3.91187 60.0803 3.91187ZM60.2436 8.14095H56.7591C56.8408 8.72244 56.9769 9.25108 57.2219 9.70042C57.603 9.5154 57.9569 9.33037 58.338 9.14535C58.9641 8.82817 59.5902 8.51099 60.2164 8.19381C60.2436 8.14095 60.2436 8.14095 60.2436 8.14095ZM64.3542 8.80174V8.77531C64.327 8.77531 64.327 8.80174 64.2998 8.80174C63.2653 9.33037 62.2036 9.88544 61.1692 10.4141C60.4614 10.7841 59.7808 11.1277 59.073 11.4978C59.808 11.8414 60.7064 12.0264 61.7408 12.0264C62.7753 12.0264 63.6464 11.8678 64.3542 11.5506V8.96033C64.3542 8.88104 64.3542 8.8546 64.3542 8.80174ZM58.2019 0.158569C58.2291 0.185001 58.2836 0.185001 58.3108 0.211433C59.8625 1.00438 61.4142 1.79734 62.9658 2.61672C63.4014 2.8546 63.8642 3.06606 64.2998 3.30394C64.327 3.30394 64.327 3.33038 64.3542 3.33038V0.158569H58.2019ZM65.3342 0.158569V4.78412H56.7319V7.29513H65.3342V10.9163C65.4159 10.837 65.4975 10.7841 65.5792 10.7048C66.4231 9.83258 66.8587 8.66958 66.8587 7.18941V0.158569H65.3342Z" fill="white"/>
<path d="M8.19401 8.27312C8.19401 8.90748 8.03067 9.51541 7.73122 10.0705C7.43177 10.6255 6.94176 11.0749 6.28842 11.4449C5.63508 11.7885 4.73673 11.9736 3.62061 11.9736C3.04893 11.9736 2.55893 11.9471 2.15059 11.8943C1.74225 11.8414 1.38835 11.7621 1.06168 11.6564C0.73501 11.5507 0.381116 11.4185 0 11.2335V8.43171C0.653343 8.74889 1.30669 8.98678 1.96003 9.14537C2.61337 9.30396 3.15782 9.40968 3.64783 9.40968C4.02895 9.40968 4.30117 9.33039 4.49173 9.1718C4.68229 9.01321 4.76396 8.80176 4.76396 8.56387C4.76396 8.37885 4.70951 8.19383 4.60062 8.06167C4.49173 7.90308 4.30117 7.77092 4.02895 7.61233C3.75672 7.45374 3.34838 7.26872 2.80393 7.05726C2.12336 6.79294 1.60613 6.5022 1.19779 6.18501C0.789456 5.86783 0.51723 5.52422 0.326671 5.07488C0.136113 4.65198 0.0544452 4.09691 0.0544452 3.43612C0.0544452 2.69603 0.245003 2.06167 0.62612 1.55946C1.00724 1.05726 1.55169 0.687218 2.20503 0.4229C2.8856 0.158583 3.64783 0.0528564 4.51895 0.0528564C5.33563 0.0528564 6.07064 0.132152 6.69676 0.317174C7.32288 0.502196 7.81289 0.687218 8.22123 0.898671L7.18677 3.33039C6.72398 3.0925 6.23398 2.90748 5.74397 2.77532C5.25396 2.64316 4.79118 2.56387 4.41006 2.56387C4.05617 2.56387 3.81116 2.64316 3.64783 2.77532C3.48449 2.90748 3.43005 3.0925 3.43005 3.30396C3.43005 3.48898 3.48449 3.64757 3.62061 3.77973C3.75672 3.91189 3.9745 4.07048 4.30117 4.2555C4.62784 4.41409 5.09063 4.65198 5.68952 4.94272C6.23398 5.18061 6.66954 5.44493 7.05065 5.73568C7.43177 6.02642 7.704 6.37004 7.89456 6.79294C8.08511 7.16299 8.19401 7.66519 8.19401 8.27312Z" fill="white"/>
<path d="M15.5441 11.7885H12.114V2.74888H9.55511V0.158569H18.103V2.74888H15.5441V11.7885Z" fill="white"/>
<path d="M29.8904 0.158569V7.16297C29.8904 8.61672 29.4821 9.80615 28.6382 10.652C27.8215 11.5242 26.5693 11.9471 24.9087 11.9471C23.3298 11.9471 22.1047 11.5242 21.2608 10.7048C20.4169 9.88544 20.0086 8.72244 20.0086 7.21584V0.158569H23.4387V6.97795C23.4387 7.79733 23.5748 8.40526 23.8198 8.77531C24.0648 9.14535 24.4459 9.33037 24.9359 9.33037C25.4803 9.33037 25.8615 9.14535 26.1065 8.77531C26.3515 8.40526 26.4604 7.79733 26.4604 6.97795V0.158569H29.8904Z" fill="white"/>
<path d="M40.6433 1.58588C39.6906 0.63434 38.3022 0.158569 36.4783 0.158569H32.3949V11.7885H36.2877C37.4311 11.7885 38.4383 11.5771 39.3094 11.1277C40.1806 10.6784 40.8611 10.0176 41.3511 9.11892C41.8411 8.22024 42.0861 7.08368 42.0861 5.73566C42.0317 3.9383 41.5689 2.56386 40.6433 1.58588ZM37.9755 8.37883C37.6216 8.9339 37.05 9.19822 36.2605 9.19822H35.7977V2.69601H36.4511C37.8394 2.69601 38.52 3.75328 38.52 5.84139C38.4928 6.97795 38.3294 7.82377 37.9755 8.37883Z" fill="white"/>
<path d="M47.694 4.49337L49.409 0.158569H53.0841L49.409 7.24227V11.7885H45.9518V7.348L42.2767 0.158569H46.0062L47.694 4.49337Z" fill="white"/>
</g>
<defs>
<clipPath id="clip0">
<rect width="79" height="12" fill="white"/>
</clipPath>
</defs>
</svg>
